# xmcd
#
# Track frame offsets: 
#        150
#        18023
#        28841
#        44495
#        63915
#        81409
#        97312
#        112795
#        127645
#        150478
#
# Disc length: 2119 seconds
#
# Revision: 0
# Processed by: cddbd v1.5PL3 Copyright (c) Steve Scherf et al.
# Submitted via: ExactAudioCopy v0.90b4
#
DISCID=7208450a
DTITLE=B. B. King - The Best of B.B. King
DYEAR=2003
DGENRE=Blues
TTITLE0=Paying The Cost To Be The Boss
TTITLE1=Recession Blues
TTITLE2=Letter
TTITLE3=Sweet Sixteen
TTITLE4=That Evil Child
TTITLE5=Lonely Nights
TTITLE6=Walkin And Cryin
TTITLE7=B. B. Boogie
TTITLE8=Everyday I Have The Blues
TTITLE9=A New Way Of Driving
EXTD=
EXTT0=
EXTT1=
EXTT2=
EXTT3=
EXTT4=
EXTT5=
EXTT6=
EXTT7=
EXTT8=
EXTT9=
PLAYORDER=
